<mxfile host="app.diagrams.net" modified="2023-09-11T00:14:09.048Z" agent="Mozilla/5.0 (Windows NT 10.0; Win64; x64) AppleWebKit/537.36 (KHTML, like Gecko) Chrome/116.0.0.0 Safari/537.36" version="21.7.4" etag="euKdZIg1t7SlE59g2ZZR" type="github">
  <diagram name="PÃ¡gina-1" id="SyKWGlo3J2gxuQ2-j7bJ">
    <mxGraphModel>
      <root>
        <mxCell id="0" />
        <mxCell id="1" parent="0" />
      </root>
    </mxGraphModel>
  </diagram>
</mxfile>
